<svg width="80" height="80" viewBox="0 0 80 80" fill="none" xmlns="http://www.w3.org/2000/svg">
<path d="M68.6042 27.3949L66.2857 29.7135C65.8441 30.1552 65.2835 30.4449 64.3946 30.3883L58.0766 29.7549C58.8702 30.9908 59.5585 32.2947 60.1363 33.6608C61.4899 36.8608 62.1761 40.2574 62.1761 43.7561C62.1761 47.2549 61.4899 50.6514 60.1363 53.8514C58.8299 56.94 56.9608 59.7127 54.5808 62.0929C52.2008 64.4729 49.428 66.3421 46.3394 67.6483C43.1394 69.0018 39.7428 69.6882 36.2441 69.6882C32.7453 69.6882 29.3488 69.0019 26.1488 67.6483C23.0602 66.3419 20.2874 64.4729 17.9074 62.0929C15.5274 59.7129 13.6581 56.94 12.3519 53.8514C10.9984 50.6514 10.312 47.2549 10.312 43.7561C10.312 40.2574 10.9983 36.8608 12.3519 33.6608C13.6581 30.5722 15.5274 27.7996 17.9074 25.4194C20.2874 23.0392 23.0602 21.1702 26.1488 19.8639C29.3488 18.5105 32.7453 17.8241 36.2441 17.8241C39.7428 17.8241 43.1394 18.5103 46.3394 19.8639C47.7055 20.4417 49.0096 21.1302 50.2455 21.9236L49.612 15.6056C49.5419 14.906 49.7896 14.2117 50.2867 13.7146L52.6053 11.396C47.5956 8.85674 42.0233 7.51221 36.2441 7.51221C26.563 7.51221 17.4613 11.2822 10.6156 18.1278C3.77 24.9735 0 34.0752 0 43.7563C0 53.4374 3.77 62.5391 10.6155 69.3846C17.4613 76.2302 26.563 80.0002 36.2441 80.0002C45.9252 80.0002 55.0269 76.2302 61.8724 69.3846C68.7178 62.5389 72.4878 53.4374 72.4878 43.7563C72.488 37.9769 71.1436 32.4046 68.6042 27.3949Z" fill="#376AEA"/>
<path d="M57.4886 43.7563C57.4886 38.7342 55.7448 34.12 52.8314 30.4836L47.14 36.175C48.6416 38.3266 49.5256 40.9394 49.5256 43.7563C49.5256 51.0797 43.5675 57.0378 36.2441 57.0378C28.9206 57.0378 22.9625 51.0797 22.9625 43.7563C22.9625 36.4328 28.9206 30.4747 36.2441 30.4747C39.0609 30.4747 41.6739 31.3588 43.8255 32.8605L49.5169 27.1691C45.8805 24.2555 41.2662 22.5117 36.2441 22.5117C24.5111 22.5117 14.9995 32.0233 14.9995 43.7563C14.9995 55.4892 24.5111 65.0008 36.2441 65.0008C47.977 65.0008 57.4886 55.4892 57.4886 43.7563Z" fill="#376AEA"/>
<path d="M36.244 46.1003C35.6441 46.1003 35.0443 45.8715 34.5868 45.4139C33.6715 44.4985 33.6715 43.0146 34.5868 42.0993L40.433 36.2531C39.1933 35.5595 37.7654 35.1626 36.244 35.1626C31.4976 35.1626 27.6499 39.0103 27.6499 43.7567C27.6499 48.5031 31.4976 52.3507 36.244 52.3507C40.9904 52.3507 44.838 48.5031 44.838 43.7567C44.838 42.2353 44.441 40.8073 43.7476 39.5678L37.9013 45.414C37.4437 45.8715 36.8438 46.1003 36.244 46.1003Z" fill="#376AEA"/>
<path d="M74.0294 9.28555L79.3139 4.00102C80.2292 3.0857 80.2292 1.6018 79.3139 0.686485C78.3988 -0.228828 76.9147 -0.228828 75.9994 0.686485L70.7148 5.97102L71.0169 8.98352L74.0294 9.28555Z" fill="#376AEA"/>
<path d="M75.2506 14.1184L68.6417 13.4557C67.532 13.3445 66.6547 12.467 66.5434 11.3574L65.8808 4.74854L54.3867 16.2428L55.2405 24.7587L63.7564 25.6126L75.2506 14.1184Z" fill="#376AEA"/>
</svg>
