<svg width="80" height="70" viewBox="0 0 80 70" fill="none" xmlns="http://www.w3.org/2000/svg">
<path d="M79.5235 47.2132C77.645 40.5758 71.5085 19.4112 71.0076 18.2841C70.0057 16.2804 68.6281 14.6524 66.8749 13.4C66.3739 11.6467 64.4954 5.38505 64.2449 4.88412C62.7421 1.87851 59.7365 0 56.3552 0C51.4711 0 47.5889 3.88225 47.5889 8.76637V16.5309C46.086 18.6598 45.2094 21.2897 45.2094 24.0449C43.8318 22.7926 41.9533 22.0412 39.9496 22.0412C37.9458 22.0412 36.0673 22.7926 34.6898 24.0449C34.6898 21.2897 33.6879 18.6598 32.3103 16.5309V8.76637C32.3103 3.88225 28.4281 0 23.544 0C20.1626 0 17.157 1.87851 15.6542 4.88412C15.4038 5.38505 14.1514 9.76824 13.0243 13.4C11.3963 14.6524 9.89347 16.2804 8.8916 18.2841C8.39067 19.4112 2.25421 40.5758 0.375701 47.0879V47.2132C0.250468 48.716 0 50.2188 0 51.7216C0 61.3646 7.7645 69.1291 17.4075 69.1291C27.0505 69.1291 34.815 61.3646 34.815 51.7216V45.3346C36.1926 46.587 38.0711 47.3384 39.9496 47.3384C41.9533 47.3384 43.8318 46.587 45.0842 45.3346V51.7216C45.0842 56.4805 47.0879 60.8636 50.2188 63.9945C53.3496 67.1253 57.7328 69.1291 62.4917 69.1291C72.1347 69.1291 79.8992 61.3646 79.8992 51.7216C80.1497 50.2188 79.8992 48.716 79.5235 47.2132ZM17.7832 60.6132C12.8991 60.6132 8.8916 56.6057 8.8916 51.7216C8.8916 46.8375 12.8991 42.83 17.7832 42.83C22.6673 42.83 26.6748 46.8375 26.6748 51.7216C26.5496 56.6057 22.6673 60.6132 17.7832 60.6132ZM32.4356 42.83C29.4299 37.8206 23.7944 34.3141 17.5327 34.3141C12.8991 34.3141 8.76637 36.0673 5.63552 39.0729C8.26543 29.8056 11.1458 20.2879 11.3963 19.5365C13.2748 15.6542 17.0318 13.4 21.2897 13.4C27.4262 13.4 32.3103 18.4094 32.3103 24.4206V42.83H32.4356ZM40.0748 44.9589C37.1944 44.9589 34.9402 42.5795 34.9402 39.6991C34.9402 36.8187 37.3197 34.5645 40.0748 34.5645C42.9552 34.5645 45.2094 36.944 45.2094 39.6991C45.2094 42.5795 42.9552 44.9589 40.0748 44.9589ZM62.3664 60.6132C57.4823 60.6132 53.4748 56.6057 53.4748 51.7216C53.4748 46.8375 57.4823 42.83 62.3664 42.83C67.2506 42.83 71.258 46.8375 71.258 51.7216C71.258 56.6057 67.3758 60.6132 62.3664 60.6132ZM62.7421 34.3141C56.3552 34.3141 50.8449 37.6954 47.8393 42.83V24.2954C47.8393 18.1589 52.8487 13.2748 58.8599 13.2748C63.1178 13.2748 66.8749 15.6542 68.7534 19.4112C69.1291 20.1626 71.8842 29.8056 74.5141 39.0729C71.5085 36.0673 67.2506 34.3141 62.7421 34.3141Z" fill="#376AEA"/>
<path d="M67.8766 51.7217C67.8766 54.7273 65.4971 57.1068 62.4915 57.1068C59.4859 57.1068 57.1064 54.6021 57.1064 51.7217C57.1064 51.5965 57.1064 51.4712 57.1064 51.346C57.2317 50.9703 57.3569 50.7198 57.7326 50.4694C57.9831 50.3441 58.484 50.2189 58.7345 50.3441C58.985 50.4694 59.1102 50.4694 59.3607 50.4694C60.4878 50.4694 61.4896 49.4675 61.4896 48.3404C61.4896 48.2152 61.4896 47.9647 61.4896 47.8395C61.3644 47.4638 61.4896 47.0881 61.7401 46.7124C61.9906 46.4619 62.3663 46.2114 62.742 46.2114C65.6223 46.4619 67.8766 48.8413 67.8766 51.7217Z" fill="#376AEA"/>
<path d="M23.1681 51.7217C23.1681 54.7273 20.7886 57.1068 17.783 57.1068C14.7774 57.1068 12.3979 54.6021 12.3979 51.7217C12.3979 51.5965 12.3979 51.4712 12.3979 51.346C12.5232 50.9703 12.6484 50.7198 13.0241 50.4694C13.2746 50.3441 13.6503 50.2189 14.026 50.3441C14.2765 50.4694 14.5269 50.4694 14.6522 50.4694C15.7793 50.4694 16.7811 49.4675 16.7811 48.3404C16.7811 48.0899 16.7811 47.9647 16.7811 47.8395C16.6559 47.4638 16.7811 47.0881 17.0316 46.7124C17.2821 46.4619 17.6578 46.2114 18.0335 46.2114C20.9138 46.4619 23.1681 48.8413 23.1681 51.7217Z" fill="#376AEA"/>
<path d="M51.471 24.9216C52.2224 24.9216 52.7233 24.4207 52.8486 23.7945C53.099 21.0394 55.3532 18.6599 58.1084 18.4095C58.7346 18.2842 59.2355 17.6581 59.2355 17.0319C59.1103 16.4057 58.4841 15.9048 57.8579 15.9048C53.8504 16.4057 50.7196 19.6618 50.3439 23.544C50.2187 24.2955 50.7196 24.7964 51.471 24.9216Z" fill="#376AEA"/>
<path d="M19.5367 15.9049C17.032 16.4058 14.903 18.0338 13.7759 20.2881C13.7759 20.2881 13.7759 20.4133 13.6507 20.4133C13.5255 20.9142 13.1498 21.7909 12.7741 23.1684C12.5236 23.7946 12.8993 24.546 13.6507 24.6712H14.0264C14.5273 24.6712 15.0283 24.2955 15.2787 23.7946C15.6544 22.5423 15.9049 21.6656 16.0301 21.1647C16.9068 19.6619 18.2843 18.5348 20.0376 18.1591C20.6638 18.0338 21.1647 17.4077 21.0395 16.6563C20.9142 16.2806 20.1628 15.7796 19.5367 15.9049Z" fill="#376AEA"/>
</svg>
